<svg viewBox="13.91304347826087 0.96 17.223388305847077 22.128" xmlns="http://www.w3.org/2000/svg" style="max-height: 500px" width="17.223388305847077" height="22.128">
<path d="M1 3h1v1h1v1h1v1h1v1h1v1h1v1h1v1h1v1h1v1h1v1h1v1h1v2H9v1h1v2h1v2h-1v1H8v-1H7v-2H6v-2H5v1H4v1H3v1H1"/>
<path d="M19 1h2v1h1v4h2v1h3v1h2v1h1v1h1v7h-1v3h-1v3H19v-3h-1v-2h-1v-2h-1v-2h-1v-1h-1v-3h3v1h1V2h1"/>
<g fill="#fff">
 <path d="M2 5h1v1h1v1h1v1h1v1h1v1h1v1h1v1h1v1h1v1h1v1H8v2h1v2h1v2H8v-2H7v-2H6v-1H5v1H4v1H3v1H2"/>
 <path d="M21 2v9h1V7h2v4h1V8h2v4h1V9h1v1h1v7h-1v3h-1v2h-8v-2h-1v-2h-1v-2h-1v-2h-1v-1h-1v-2h2v1h1v1h1V2"/>
</g>
</svg>